<?xml version="1.0" encoding="utf-8"?>
<!-- Generator: Adobe Illustrator 16.2.1, SVG Export Plug-In . SVG Version: 6.00 Build 0)  -->
<!DOCTYPE svg PUBLIC "-//W3C//DTD SVG 1.1//EN" "http://www.w3.org/Graphics/SVG/1.1/DTD/svg11.dtd">
<svg version="1.1" id="Layer_1" xmlns="http://www.w3.org/2000/svg" xmlns:xlink="http://www.w3.org/1999/xlink" x="0px" y="0px"
	 width="600px" height="430px" viewBox="0 0 600 430" enable-background="new 0 0 600 430" xml:space="preserve">
<g>
	<path fill="#FFFFFF" d="M497.157,280.256c0-79.164-87.15-159.912-194.646-159.912c-107.504,0-194.65,80.748-194.65,159.912v-1.283
		c0-99.287,87.146-179.776,194.65-179.776c107.496,0,194.646,80.489,194.646,179.776V280.256z"/>
	<path fill="#FFFFFF" d="M95.186,228.227c-40.14,0-81.084,44.193-81.084,98.702c0,54.507,40.944,98.697,81.084,98.697h-0.648
		c-50.348,0-91.159-44.19-91.159-98.697c0-54.509,40.811-98.702,91.159-98.702H95.186z"/>
	<path fill="#FFFFFF" d="M506.389,425.626c40.139,0,81.085-44.19,81.085-98.697c0-54.509-40.946-98.702-81.085-98.702h0.648
		c50.345,0,91.158,44.193,91.158,98.702c0,54.507-40.813,98.697-91.158,98.697H506.389z"/>
	<path fill="#FFFFFF" d="M521.507,209.95c0-89.062-98.047-179.912-218.996-179.912c-120.954,0-219.004,90.85-219.004,179.912v-1.438
		c0-111.706,98.05-202.27,219.004-202.27c120.949,0,218.996,90.563,218.996,202.27V209.95z"/>
</g>
</svg>
